PathFileType	4	(x/y/z)	S01_PSF_T12.trc
DataRate	CameraRate	NumFrames	NumMarkers	Units	OrigDataRate	OrigDataStartFrame	OrigNumFrames
240	240	7	51	mm	240	187	372
Frame#	Time	Sternum			R.Acromium			L.Acromium			Top.Head			R.ASIS			L.ASIS			R.PSIS			L.PSIS			R.Great.Tro			L.Great.Tro			R.Iliac.Crest			L.Iliac.Crest			V.Sacral			R.Thigh.Upper.Post			R.Thigh.Lower.Ant			R.Thigh.Lower.Post			R.Thigh.Upper.Ant			R.Knee.Lat			R.Knee.Med			R.Shank.Upper.Post			R.Shank.Lower.Ant			R.Shank.Lower.Post			R.Shank.Upper.Ant			R.Ankle.Lat			R.Ankle.Med			R.Heel.Upper			R.Heel.Med			R.Heel.Lat			R.Toe.Lat			R.Toe.Med			R.Toe.Tip			L.Thigh.Upper.Post			L.Thigh.Lower.Ant			L.Thigh.Lower.Post			L.Thigh.Upper.Ant			L.Knee.Lat			L.Knee.Med			L.Shank.Upper.Post			L.Shank.Lower.Ant			L.Shank.Lower.Post			L.Shank.Upper.Ant			L.Ankle.Lat			L.Ankle.Med			L.Heel.Upper			L.Heel.Med			L.Heel.Lat			L.Toe.Lat			L.Toe.Med			L.Toe.Tip			Cervical.Spine			Back			
		X1	Y1	Z1	X2	Y2	Z2	X3	Y3	Z3	X4	Y4	Z4	X5	Y5	Z5	X6	Y6	Z6	X7	Y7	Z7	X8	Y8	Z8	X9	Y9	Z9	X10	Y10	Z10	X11	Y11	Z11	X12	Y12	Z12	X13	Y13	Z13	X14	Y14	Z14	X15	Y15	Z15	X16	Y16	Z16	X17	Y17	Z17	X18	Y18	Z18	X19	Y19	Z19	X20	Y20	Z20	X21	Y21	Z21	X22	Y22	Z22	X23	Y23	Z23	X24	Y24	Z24	X25	Y25	Z25	X26	Y26	Z26	X27	Y27	Z27	X28	Y28	Z28	X29	Y29	Z29	X30	Y30	Z30	X31	Y31	Z31	X32	Y32	Z32	X33	Y33	Z33	X34	Y34	Z34	X35	Y35	Z35	X36	Y36	Z36	X37	Y37	Z37	X38	Y38	Z38	X39	Y39	Z39	X40	Y40	Z40	X41	Y41	Z41	X42	Y42	Z42	X43	Y43	Z43	X44	Y44	Z44	X45	Y45	Z45	X46	Y46	Z46	X47	Y47	Z47	X48	Y48	Z48	X49	Y49	Z49	X50	Y50	Z50	X51	Y51	Z51	

187	0.775	-36.117	1255.9	324.92	-111.89	1502.7	525.38	-159.43	1540.9	204.01	-79.031	1834.2	370.46	-94.6	1008.4	477.44	-102.78	1016.7	210.81	-333.86	1062	387.53	-339.43	1056.6	285.85	-180.3	961.79	555.31	-203.45	967.57	131.55	-175.1	1104.7	548.84	-214.04	1105.6	143.93	-350.72	1023	335.21	-266.04	668.09	518.87	-214.71	585.18	485.87	-283.15	583.02	497.08	-193.73	671.08	508.71	-286.52	514.37	488.79	-279.6	522.87	340.66	-388.41	376.84	501.07	-351.72	282.13	455.68	-411.71	311.02	485.39	-331.64	350.3	477.1	-465.31	112.21	436.6	-429.73	119.24	345.51	-537.78	90.411	374.18	-523.1	60.835	345.39	-530.15	59.236	409.56	-344.72	34.275	476.28	-307.19	41.25	351.76	-244.98	50.206	409.51	-136.1	681.75	151.13	-32.423	644.36	144.26	-94.282	602.32	170.13	-82.792	723.47	125.65	-11.672	545.81	157.56	10.612	549.82	305.45	-4.51	399.89	139.22	90.341	344.56	159.21	29.391	329.37	141.98	57.985	414.37	152.09	119.69	125.34	172.94	142.05	151.1	268.59	71.161	64.799	223.76	95.244	49.83	258	91.691	45.26	194.77	281	126.52	150.81	302.03	155.36	270.13	350.47	192.1	213.88	-215.3	1584.4	384.22	-328.83	1282.2	385.11
188	0.77917	-30.458	1254.5	324.55	-106.25	1501.5	524.65	-153.71	1539.5	203.29	-73.293	1833	369.54	-89.02	1007.3	477.38	-97.006	1015.4	210.65	-328.21	1060.7	387.21	-333.73	1055.2	285.54	-174.87	960.87	555.21	-197.6	966.11	131.37	-169.63	1103.5	548.65	-208.36	1104.1	143.64	-345.02	1021.6	334.92	-261.93	667.59	518.82	-210.93	584.43	485.86	-279.39	582.58	497.09	-189.61	670.29	508.67	-283.22	513.9	488.83	-276.12	522.38	340.62	-386.04	377.02	501.12	-349.98	282	455.78	-409.81	311.35	485.45	-329.42	350.06	477.2	-464.83	112.79	436.7	-429.3	119.73	345.61	-537.43	91.355	374.32	-522.9	61.773	345.47	-529.93	60.097	409.64	-344.69	34.258	476.34	-307.08	41.295	351.78	-244.84	49.995	409.56	-129.95	680.51	151.2	-26.226	643.22	144.68	-88.128	601.14	170.37	-76.633	722.24	125.78	-5.4348	544.68	158.09	16.069	548.78	306.11	2.7576	398.69	139.91	98.068	344.15	160.07	37.232	328.43	142.78	65.151	413.7	152.82	129.38	125.05	174.18	151.33	151.2	269.79	81.292	64.158	224.92	105.43	49.446	259.32	102.07	44.74	196.05	290.78	127.68	152.37	311.29	157.02	271.66	359.53	194.1	215.44	-209.68	1583.2	383.44	-323.23	1280.9	384.61
189	0.78333	-24.775	1253.2	324.16	-100.61	1500.4	523.9	-147.99	1538.1	202.54	-67.558	1831.8	368.58	-83.412	1006.2	477.33	-91.194	1014.1	210.48	-322.53	1059.5	386.86	-327.99	1053.7	285.2	-169.42	959.96	555.11	-191.7	964.66	131.19	-164.14	1102.3	548.45	-202.65	1102.6	143.34	-339.29	1020.3	334.62	-257.75	667.08	518.76	-207.05	583.69	485.87	-275.53	582.13	497.08	-185.41	669.49	508.63	-279.81	513.41	488.86	-272.49	521.86	340.59	-383.59	377.22	501.17	-348.16	281.87	455.88	-407.82	311.7	485.5	-327.12	349.82	477.3	-464.32	113.42	436.82	-428.85	120.27	345.72	-537.06	92.369	374.48	-522.68	62.78	345.56	-529.69	61.025	409.74	-344.66	34.24	476.38	-306.96	41.342	351.81	-244.71	49.782	409.6	-123.66	679.33	151.28	-19.877	642.15	145.14	-81.823	600.01	170.62	-70.329	721.07	125.96	0.91083	543.58	158.62	21.711	547.82	306.73	9.9122	397.52	140.65	105.59	343.63	160.95	44.853	327.49	143.63	72.22	412.97	153.57	138.51	124.67	175.45	160.12	151.16	271.04	90.789	63.526	226.17	114.96	49.03	260.69	111.76	44.2	197.39	299.96	128.5	153.89	320.05	158.27	273.15	368.12	195.62	216.93	-204.05	1582	382.62	-317.62	1279.7	384.09
190	0.7875	-19.067	1251.8	323.74	-94.96	1499.2	523.12	-142.28	1536.7	201.76	-61.825	1830.6	367.59	-77.773	1005	477.27	-85.341	1012.9	210.31	-316.83	1058.2	386.49	-322.22	1052.3	284.83	-163.95	959.04	555	-185.76	963.23	131	-158.62	1101.1	548.24	-196.9	1101.2	143.04	-333.53	1018.9	334.28	-253.48	666.56	518.69	-203.08	582.94	485.88	-271.58	581.67	497.08	-181.13	668.7	508.6	-276.29	512.91	488.89	-268.72	521.3	340.57	-381.05	377.43	501.21	-346.28	281.76	455.98	-405.76	312.07	485.56	-324.73	349.58	477.4	-463.77	114.1	436.94	-428.36	120.84	345.85	-536.66	93.456	374.66	-522.45	63.858	345.67	-529.43	62.022	409.85	-344.62	34.223	476.43	-306.84	41.392	351.84	-244.56	49.569	409.65	-117.24	678.2	151.39	-13.384	641.14	145.65	-75.372	598.95	170.89	-63.888	719.97	126.19	7.3625	542.52	159.16	27.542	546.94	307.31	16.956	396.39	141.42	112.92	343.01	161.85	52.257	326.53	144.52	79.194	412.17	154.34	147.06	124.2	176.75	168.42	150.97	272.31	99.641	62.893	227.47	123.83	48.569	262.1	120.75	43.633	198.78	308.53	128.96	155.38	328.31	159.1	274.6	376.23	196.65	218.37	-198.43	1580.8	381.77	-312	1278.5	383.57
191	0.79167	-13.333	1250.5	323.3	-89.299	1498.1	522.32	-136.57	1535.2	200.94	-56.097	1829.4	366.56	-72.103	1003.9	477.2	-79.443	1011.6	210.14	-311.08	1057	386.09	-316.41	1050.9	284.44	-158.46	958.14	554.87	-179.76	961.82	130.8	-153.08	1100	548.01	-191.1	1099.7	142.73	-327.72	1017.6	333.93	-249.14	666.04	518.62	-199.02	582.2	485.9	-267.53	581.2	497.07	-176.77	667.91	508.57	-272.66	512.41	488.92	-264.8	520.71	340.57	-378.41	377.66	501.25	-344.33	281.66	456.08	-403.62	312.47	485.61	-322.26	349.35	477.5	-463.19	114.83	437.08	-427.85	121.45	345.99	-536.22	94.62	374.85	-522.19	65.012	345.79	-529.16	63.091	409.97	-344.58	34.206	476.46	-306.71	41.443	351.86	-244.41	49.355	409.69	-110.68	677.11	151.54	-6.754	640.2	146.2	-68.784	597.93	171.18	-57.316	718.94	126.47	13.917	541.5	159.72	33.563	546.15	307.87	23.893	395.29	142.23	120.05	342.29	162.78	59.447	325.55	145.45	86.078	411.31	155.15	155.04	123.64	178.08	176.22	150.61	273.61	107.84	62.257	228.82	132.05	48.056	263.54	129.04	43.038	200.19	316.5	129.05	156.85	336.07	159.5	276.01	383.88	197.17	219.76	-192.79	1579.7	380.89	-306.35	1277.3	383.02
192	0.79583	-7.5733	1249.2	322.83	-83.629	1497	521.49	-130.85	1533.8	200.09	-50.373	1828.2	365.5	-66.4	1002.8	477.13	-73.498	1010.4	209.97	-305.3	1055.8	385.67	-310.56	1049.4	284.02	-152.95	957.24	554.73	-173.71	960.44	130.6	-147.51	1098.8	547.77	-185.25	1098.3	142.41	-321.88	1016.3	333.55	-244.72	665.51	518.53	-194.87	581.45	485.94	-263.4	580.72	497.06	-172.33	667.12	508.55	-268.92	511.89	488.95	-260.73	520.09	340.6	-375.69	377.9	501.29	-342.3	281.57	456.19	-401.4	312.89	485.67	-319.71	349.13	477.6	-462.57	115.61	437.23	-427.29	122.11	346.15	-535.75	95.864	375.05	-521.92	66.246	345.93	-528.86	64.236	410.11	-344.54	34.189	476.49	-306.59	41.495	351.89	-244.26	49.143	409.74	-104.01	676.08	151.71	0.0014413	639.33	146.79	-62.068	596.97	171.5	-50.625	717.96	126.79	20.57	540.51	160.3	39.77	545.45	308.39	30.726	394.22	143.07	126.99	341.46	163.74	66.428	324.57	146.41	92.875	410.4	155.99	162.46	122.97	179.4	183.54	150.08	274.93	115.4	61.618	230.19	139.6	47.489	264.97	136.64	42.414	201.6	323.9	128.78	158.28	343.34	159.46	277.4	391.08	197.17	221.12	-187.16	1578.5	379.97	-300.69	1276.1	382.46
193	0.8	-1.7852	1248	322.34	-77.949	1496	520.63	-125.14	1532.4	199.2	-44.654	1827.1	364.4	-60.662	1001.7	477.06	-67.504	1009.2	209.8	-299.49	1054.6	385.23	-304.66	1048.1	283.58	-147.41	956.35	554.58	-167.6	959.08	130.39	-141.91	1097.7	547.52	-179.35	1096.9	142.08	-316	1015	333.14	-240.22	664.98	518.44	-190.62	580.71	485.99	-259.16	580.23	497.04	-167.81	666.33	508.54	-265.08	511.38	488.97	-256.51	519.44	340.64	-372.87	378.17	501.32	-340.21	281.5	456.32	-399.1	313.35	485.73	-317.08	348.92	477.7	-461.91	116.44	437.4	-426.69	122.82	346.33	-535.25	97.192	375.28	-521.61	67.564	346.07	-528.54	65.46	410.26	-344.49	34.172	476.52	-306.46	41.547	351.93	-244.1	48.932	409.78	-97.223	675.09	151.92	6.8712	638.52	147.42	-55.235	596.06	171.85	-43.824	717.04	127.16	27.317	539.56	160.89	46.158	544.83	308.88	37.46	393.19	143.94	133.75	340.53	164.72	73.209	323.57	147.4	99.591	409.42	156.85	169.34	122.21	180.73	190.37	149.38	276.25	122.31	60.979	231.57	146.51	46.868	266.39	143.55	41.767	203.01	330.73	128.15	159.69	350.13	158.96	278.76	397.85	196.66	222.46	-181.51	1577.4	379.02	-295	1274.9	381.89
